# xmcd
#
# Track frame offsets:
#	150
#	22642
#	38898
#	55035
#	77509
#	94713
#	112448
#	140233
#	160315
#	181313
#	200307
#
# Disc length: 2885 seconds
# Revision: 0
# Processed by: cddbd v1.5.2PL0 Copyright (c) Steve Scherf et al.
# Submitted via: dBpowerAMP V12.0
#
DISCID=8c0b430b
DTITLE=Cal Scott - Carved Wood Box
DYEAR=2012
DGENRE=Country
TTITLE0=Carved Wood Box
TTITLE1=One More River
TTITLE2=Paid Too Much For The Diamond
TTITLE3=London Town
TTITLE4=Dig Down Deep
TTITLE5=Smallest Act Of Kindness
TTITLE6=The Will And The Wind
TTITLE7=Overcast Skies
TTITLE8=Listening For Love
TTITLE9=Love You More
TTITLE10=Jimmy's Waltz
EXTD=
EXTT0=
EXTT1=
EXTT2=
EXTT3=
EXTT4=
EXTT5=
EXTT6=
EXTT7=
EXTT8=
EXTT9=
EXTT10=
PLAYORDER=
